# AST/ASF file generated using VICON BodyLanguage
# -----------------------------------------------
:version 1.10
:name VICON
:units
  mass 1.0
  length 0.45
  angle deg
:documentation
   .ast/.asf automatically generated from VICON data using
   VICON BodyBuilder and BodyLanguage model FoxedUp or BRILLIANT.MOD
:root
   order TX TY TZ RX RY RZ
   axis XYZ
   position 0 0 0  
   orientation 0 0 0 
:bonedata
  begin
     id 1 
     name lhipjoint
     direction 0.682418 -0.694059 0.22932 
     length 2.25561 
     axis 0 0 0  XYZ
  end
  begin
     id 2 
     name lfemur
     direction 0.34202 -0.939693 0  
     length 6.96448  
     axis 0 0 20  XYZ
    dof rx ry rz
    limits (-160.0 20.0)
           (-70.0 70.0)
           (-60.0 70.0)
  end
  begin
     id 3 
     name ltibia
     direction 0.34202 -0.939693 0   
     length 6.88553   
     axis 0 0 20   XYZ
    dof rx
    limits (-10.0 170.0)
  end
  begin
     id 4 
     name lfoot
     direction 0.0723587 -0.198804 0.977364   
     length 1.88518   
     axis -90 7.62852e-016 20   XYZ
    dof rx rz
    limits (-45.0 90.0)
           (-70.0 20.0)
  end
  begin
     id 5 
     name ltoes
     direction 1.53558e-011 -4.21962e-011 1   
     length 0.952124   
     axis -90 7.62852e-016 20   XYZ
    dof rx
    limits (-90.0 20.0)
  end
  begin
     id 6 
     name rhipjoint
     direction -0.657603 -0.71533 0.236348   
     length 2.18854  
     axis 0 0 0  XYZ 
  end
  begin
     id 7 
     name rfemur
     direction -0.34202 -0.939693 0   
     length 6.86686   
     axis 0 0 -20   XYZ
    dof rx ry rz
    limits (-160.0 20.0)
           (-70.0 70.0)
           (-70.0 60.0)
  end
  begin
     id 8 
     name rtibia
     direction -0.34202 -0.939693 0   
     length 6.59503   
     axis 0 0 -20   XYZ
    dof rx
    limits (-10.0 170.0)
 end
 begin
     id 9 
     name rfoot
     direction -0.101977 -0.280179 0.954516   
     length 1.93723  
     axis -90 -7.62852e-016 -20   XYZ
    dof rx rz
    limits (-45.0 90.0)
           (-20.0 70.0)
  end
  begin
     id 10 
     name rtoes
     direction -1.53564e-011 -4.21897e-011 1   
     length 0.970315   
     axis -90 -7.62852e-016 -20   XYZ
    dof rx
    limits (-90.0 20.0)
  end
  begin
     id 11 
     name lowerback
     direction -0.0339559 0.999421 -0.00235966   
     length 1.88543   
     axis 0 0 0   XYZ
    dof rx ry rz
    limits (-20.0 45.0)
           (-30.0 30.0)
           (-30.0 30.0)
  end
  begin
     id 12 
     name upperback
     direction 0.00401003 0.999739 0.0224689   
     length 1.8856   
     axis 0 0 0   XYZ
    dof rx ry rz
    limits (-20.0 45.0)
           (-30.0 30.0)
           (-30.0 30.0)
  end
  begin
     id 13 
     name thorax
     direction 0.0198619 0.999546 0.0226536   
     length 1.88352   
     axis 0 0 0   XYZ
    dof rx ry rz
    limits (-20.0 45.0)
           (-30.0 30.0)
           (-30.0 30.0)
  end
  begin
     id 14 
     name lowerneck
     direction -0.0461848 0.998632 0.0245198   
     length 1.34895   
     axis 0 0 0   XYZ
    dof rx ry rz
    limits (-20.0 45.0)
           (-30.0 30.0)
           (-30.0 30.0)
  end
  begin
     id 15 
     name upperneck
     direction -0.0180627 0.994724 -0.100984   
     length 1.35214   
     axis 0 0 0   XYZ
    dof rx ry rz
    limits (-20.0 45.0)
           (-30.0 30.0)
           (-30.0 30.0)
  end
  begin
     id 16
     name head
     direction -0.00374772 0.999293 -0.037403  
     length 1.3568  
     axis 0 0 0   XYZ
    dof rx ry rz
    limits (-20.0 45.0)
           (-30.0 30.0)
           (-30.0 30.0)
  end
  begin
     id 17 
     name lclavicle
     direction 0.971773 0.191119 0.138311  
     length 2.84954  
     axis 0 0 0   XYZ
    dof ry rz
    limits (-20.0 10.0)
           (0.0 20.0)
  end
  begin
     id 18 
     name lhumerus
     direction 1 -4.4897e-011 -2.43761e-027   
     length 4.40919   
     axis 180 -30 -90   XYZ
    dof rx ry rz
    limits (-60.0 90.0)
           (-90.0 90.0)
           (-90.0 90.0)
  end
  begin
     id 19
     name lradius
     direction 1 -4.4896e-011 -9.1621e-027   
     length 3.03857   
     axis 180 -30 -90   XYZ
    dof rx
    limits (-10.0 170.0)
  end
  begin
     id 20
     name lwrist
     direction 1 -4.4896e-011 -1.41363e-026   
     length 1.51928   
     axis 1.07133e-014 90 90   XYZ
    dof ry
    limits (-180.0 0.0)
 end
  begin
     id 21 
     name lhand
     direction 1 -4.48978e-011 -2.82725e-026   
     length 0.523208   
     axis 1.80403e-014 90 90   XYZ
    dof rx rz
    limits (-90.0 90.0)
           (-45.0 45.0)
  end
  begin
     id 22 
     name lfingers
     direction 1 -4.48977e-011 -5.6545e-026   
     length 0.421824   
     axis 3.60806e-014 90 90   XYZ
    dof rx
    limits (0.0 90.0)
  end
  begin
     id 23
     name lthumb
     direction 0.707107 -6.34962e-011 0.707107   
     length 0.605657   
     axis -90 45 2.85299e-015   XYZ
    dof rx rz
    limits (-45.0 45.0)
           (-45.0 45.0)
  end
  begin
     id 24 
     name rclavicle
     direction -0.957247 0.24311 0.156766   
     length 3.12406  
     axis 0 0 0   XYZ 
    dof ry rz
    limits (-10.0 20.0)
           (-20.0 0.0)
  end
  begin
     id 25 
     name rhumerus
     direction -1 -4.48964e-011 -1.70632e-027  
     length 4.61969   
     axis 180 30 90   XYZ
    dof rx ry rz
    limits (-90.0 60.0)
           (-90.0 90.0)
           (-90.0 90.0)
  end
  begin
     id 26 
     name rradius
     direction -1 -4.48966e-011 -6.60395e-027   
     length 3.09382   
     axis 180 30 90   XYZ
    dof rx
    limits (-10.0 170.0)
  end
  begin
     id 27 
     name rwrist
     direction -1 -4.48963e-011 -1.41363e-026   
     length 1.54691   
     axis 1.07133e-014 -90 -90   XYZ
    dof ry
    limits (-180.0 0.0)
  end
  begin
     id 28
     name rhand
     direction -1 -4.49013e-011 -2.82725e-026   
     length 0.500896   
     axis 1.80403e-014 -90 -90   XYZ
    dof rx rz
    limits (-90.0 90.0)
           (-45.0 45.0)
  end
  begin
     id 29
     name rfingers
     direction -1 -4.48902e-011 -5.6545e-026   
     length 0.403835   
     axis 3.60806e-014 -90 -90   XYZ
    dof rx
    limits (0.0 90.0)
  end
  begin
     id 30
     name rthumb
     direction -0.707107 -6.34953e-011 0.707107   
     length 0.579829   
     axis -90 -45 -2.85299e-015   XYZ
    dof rx rz
    limits (-45.0 45.0)
           (-45.0 45.0)
  end
:hierarchy
  begin
    root lhipjoint rhipjoint lowerback
    lhipjoint lfemur
    lfemur ltibia
    ltibia lfoot
    lfoot ltoes
    rhipjoint rfemur
    rfemur rtibia
    rtibia rfoot
    rfoot rtoes
    lowerback upperback
    upperback thorax
    thorax lowerneck lclavicle rclavicle
    lowerneck upperneck
    upperneck head
    lclavicle lhumerus
    lhumerus lradius
    lradius lwrist
    lwrist lhand lthumb
    lhand lfingers
    rclavicle rhumerus
    rhumerus rradius
    rradius rwrist
    rwrist rhand rthumb
    rhand rfingers
  end

#!OML:ASF E:\madness\Project 1\Capture day 1\Session 1\Female1.ASF
:FULLY-SPECIFIED
:DEGREES
50
root 2.40617 16.2651 -0.73782 -16.6402 -86.7043 24.1117
lowerback -4.82242 0.129494 -3.06347
upperback -5.7085 0.0831953 -0.178221
thorax -3.19508 0.083588 1.53707
lowerneck -3.57658 -0.847755 -0.930861
upperneck 20.4352 -0.885768 -3.60163
head 6.79398 -0.990003 -1.08734
rclavicle 2.2736e-015 6.4605e-015
rhumerus -48.4085 -10.2466 -78.4433
rradius 29.4899
rwrist 8.67834
rhand -10.4217 -49.718
rfingers 7.12502
rthumb 15.5775 -79.1106
lclavicle 2.2736e-015 6.4605e-015
lhumerus -52.0409 22.0924 70.0525
lradius 35.8872
lwrist -15.187
lhand -21.868 -15.2503
lfingers 7.12502
lthumb 4.5362 14.6811
rfemur -8.5434 16.8137 17.436
rtibia 18.568
rfoot -18.0296 -18.6573
rtoes 13.8265
lfemur -11.0337 -17.7662 -17.2832
ltibia 21.4656
lfoot -11.9197 21.6387
ltoes 13.5641
51
root 2.41133 16.2661 -0.743969 -15.102 -86.5804 22.6942
lowerback -4.85071 0.173973 -3.00636
upperback -5.72418 0.140599 -0.208356
thorax -3.19779 0.109486 1.47514
lowerneck -3.42159 -0.827712 -0.940928
upperneck 20.2781 -0.864544 -3.576
head 6.71651 -0.972886 -1.07248
rclavicle 5.80824e-015 -9.69075e-015
rhumerus -48.2762 -10.2629 -78.4447
rradius 29.2718
rwrist 8.53723
rhand -10.3161 -49.5921
rfingers 7.12502
rthumb 15.6792 -78.9768
lclavicle 5.80824e-015 -9.69075e-015
lhumerus -51.9407 22.2536 69.8354
lradius 35.7849
lwrist -15.4581
lhand -22.9527 -15.4778
lfingers 7.12502
lthumb 3.48879 14.4734
rfemur -8.72212 16.8403 17.457
rtibia 18.6388
rfoot -18.1024 -18.7628
rtoes 14.3955
lfemur -11.2511 -17.7336 -17.1403
ltibia 21.4694
lfoot -11.9953 21.3963
ltoes 13.5224
52
root 2.41382 16.2673 -0.74988 -15.7375 -86.4939 23.4975
lowerback -4.94323 0.223868 -3.08659
upperback -5.75247 0.209142 -0.235427
thorax -3.17977 0.145292 1.49372
lowerneck -3.39753 -0.787851 -0.928551
upperneck 20.2692 -0.786234 -3.71082
head 6.70982 -0.944575 -1.11237
rclavicle -6.69656e-015 5.41688e-015
rhumerus -48.2418 -10.4235 -78.2829
rradius 29.1393
rwrist 8.78225
rhand -10.33 -49.2626
rfingers 7.12502
rthumb 15.6658 -78.6483
lclavicle -6.69656e-015 5.41688e-015
lhumerus -51.866 22.3948 69.7075
lradius 35.6569
lwrist -15.3868
lhand -23.3941 -15.3664
lfingers 7.12502
lthumb 3.06249 14.5913
rfemur -8.95494 16.7732 17.3366
rtibia 18.7192
rfoot -18.1764 -18.7532
rtoes 14.5309
lfemur -11.4603 -17.6796 -17.145
ltibia 21.4689
lfoot -11.9086 21.353
ltoes 13.1046
53
root 2.41408 16.2659 -0.756814 -16.6932 -86.3783 24.4824
lowerback -4.95236 0.255634 -3.21958
upperback -5.71018 0.257136 -0.265271
thorax -3.13428 0.173187 1.53845
lowerneck -3.53705 -0.792 -1.09266
upperneck 20.3712 -0.792688 -3.5767
head 6.76923 -0.951307 -1.04441
rclavicle 5.82066e-015 6.75868e-015
rhumerus -48.2838 -10.5707 -78.1348
rradius 29.2344
rwrist 8.95051
rhand -10.2758 -49.3384
rfingers 7.12502
rthumb 15.7181 -78.7201
lclavicle 5.82066e-015 6.75868e-015
lhumerus -51.7143 22.3374 69.7426
lradius 35.6402
lwrist -15.0426
lhand -23.3518 -15.1415
lfingers 7.12502
lthumb 3.10334 14.8157
rfemur -8.9892 16.7739 17.262
rtibia 18.7856
rfoot -18.3471 -18.8308
rtoes 14.483
lfemur -11.506 -17.594 -17.2181
ltibia 21.475
lfoot -11.7988 21.277
ltoes 12.5187
54
root 2.41646 16.2644 -0.763538 -15.8043 -86.2584 23.6016
lowerback -4.88009 0.244095 -3.24914
upperback -5.69808 0.242163 -0.237751
thorax -3.16178 0.168351 1.58281
lowerneck -3.62987 -0.757374 -1.39151
upperneck 20.423 -0.76969 -3.24325
head 6.8066 -0.936073 -0.886483
rclavicle -1.11319e-014 5.26779e-015
rhumerus -48.3623 -10.4863 -78.0833
rradius 29.4711
rwrist 8.83205
rhand -10.1649 -49.9178
rfingers 7.12502
rthumb 15.8248 -79.2911
lclavicle -1.11319e-014 5.26779e-015
lhumerus -51.7131 22.3077 69.7634
lradius 35.8534
lwrist -14.675
lhand -22.9191 -14.8349
lfingers 7.12502
lthumb 3.52119 15.1158
rfemur -9.01682 16.7913 17.3138
rtibia 18.8599
rfoot -18.4796 -18.9692
rtoes 14.3721
lfemur -11.5887 -17.4694 -17.1536
ltibia 21.4837
lfoot -11.6421 21.0511
ltoes 11.9918
55
root 2.419 16.2652 -0.76932 -14.0835 -86.15 21.8977
lowerback -4.7872 0.216721 -3.23531
upperback -5.72643 0.202689 -0.178283
thorax -3.2415 0.15101 1.63531
lowerneck -3.66473 -0.699468 -1.46313
upperneck 20.4566 -0.689034 -3.19685
head 6.82518 -0.89966 -0.854615
rclavicle 6.13126e-015 4.62174e-015
rhumerus -48.4046 -10.3607 -78.0226
rradius 29.5441
rwrist 8.77813
rhand -10.0793 -50.3015
rfingers 7.12502
rthumb 15.9073 -79.6682
lclavicle 6.13126e-015 4.62174e-015
lhumerus -51.8249 22.3192 69.7514
lradius 36.0996
lwrist -14.315
lhand -22.4653 -14.8057
lfingers 7.12502
lthumb 3.9595 15.1373
rfemur -9.04948 16.7998 17.4158
rtibia 18.9014
rfoot -18.5526 -19.0792
rtoes 14.4267
lfemur -11.7075 -17.3351 -17.0294
ltibia 21.5357
lfoot -11.4372 20.8351
ltoes 11.5383
56
root 2.42291 16.2649 -0.775211 -12.1375 -86.0046 19.9725
lowerback -4.77265 0.223193 -3.17442
upperback -5.69031 0.212368 -0.178104
thorax -3.21159 0.153705 1.60156
lowerneck -3.74168 -0.727298 -1.24106
upperneck 20.4371 -0.701004 -3.43519
head 6.82971 -0.906883 -0.96975
rclavicle 9.0944e-015 -5.66536e-015
rhumerus -48.2884 -10.3883 -78.0086
rradius 29.3933
rwrist 8.8226
rhand -10.1837 -50.143
rfingers 7.12502
rthumb 15.8068 -79.5177
lclavicle 9.0944e-015 -5.66536e-015
lhumerus -51.678 22.3335 69.7244
lradius 36.0748
lwrist -14.2307
lhand -22.4964 -15.1116
lfingers 7.12502
lthumb 3.92938 14.8319
rfemur -9.06766 16.7037 17.5341
rtibia 18.8908
rfoot -18.5733 -19.1588
rtoes 14.508
lfemur -11.8421 -17.1832 -16.8917
ltibia 21.6388
lfoot -11.431 20.5769
ltoes 11.0576
57
root 2.42716 16.2638 -0.78184 -10.5897 -85.8287 18.4472
lowerback -4.76499 0.226792 -3.1209
upperback -5.63307 0.219519 -0.192849
thorax -3.15562 0.154837 1.55655
lowerneck -3.91574 -0.722603 -1.09168
upperneck 20.4738 -0.690097 -3.48745
head 6.87106 -0.894396 -1.01246
rclavicle 1.37286e-014 8.44835e-016
rhumerus -48.187 -10.4033 -78.0418
rradius 29.3498
rwrist 8.88492
rhand -10.5382 -49.7154
rfingers 7.12502
rthumb 15.4653 -79.1168
lclavicle 1.37286e-014 8.44835e-016
lhumerus -51.6428 22.3428 69.7209
lradius 36.3762
lwrist -14.2571
lhand -22.5753 -15.0915
lfingers 7.12502
lthumb 3.85325 14.8534
rfemur -9.08698 16.5633 17.6293
rtibia 18.882
rfoot -18.5526 -19.2192
rtoes 14.5873
lfemur -11.9982 -17.0299 -16.7694
ltibia 21.7458
lfoot -11.5493 20.2712
ltoes 10.6015
58
root 2.42968 16.2635 -0.789411 -9.65955 -85.6576 17.5156
lowerback -4.62071 0.25096 -3.09244
upperback -5.678 0.243808 -0.226923
thorax -3.284 0.167431 1.50527
lowerneck -3.95844 -0.713091 -1.05053
upperneck 20.5648 -0.698329 -3.38271
head 6.908 -0.88853 -0.987529
rclavicle 2.52829e-015 6.26172e-015
rhumerus -48.3634 -10.463 -78.006
rradius 29.4889
rwrist 8.85434
rhand -10.7396 -49.7056
rfingers 7.12502
rthumb 15.2713 -79.1219
lclavicle 2.52829e-015 6.26172e-015
lhumerus -51.8618 22.2215 69.6622
lradius 36.8483
lwrist -14.2358
lhand -22.5605 -14.4496
lfingers 7.12502
lthumb 3.86756 15.4951
rfemur -9.09083 16.5416 17.6947
rtibia 18.9199
rfoot -18.5418 -19.331
rtoes 14.6157
lfemur -12.1178 -16.9363 -16.683
ltibia 21.8179
lfoot -11.7419 19.9736
ltoes 12.0427
